<svg width="120" height="120" viewBox="0 0 120 120" fill="none" xmlns="http://www.w3.org/2000/svg">
<rect width="120" height="120" fill="white"/>
<path d="M73.5858 66.7849C73.5836 67.3051 73.399 67.8035 73.0718 68.1722C72.7447 68.5409 72.3013 68.7503 71.8375 68.7552H55.9065C55.4406 68.7552 54.9939 68.5476 54.6645 68.1781C54.3351 67.8086 54.15 67.3074 54.15 66.7849C54.15 66.2624 54.3351 65.7612 54.6645 65.3917C54.9939 65.0222 55.4406 64.8146 55.9065 64.8146H71.8375C72.0678 64.8146 72.2958 64.8657 72.5085 64.9648C72.7211 65.0639 72.9142 65.2092 73.0766 65.3923C73.2391 65.5753 73.3677 65.7926 73.4551 66.0316C73.5424 66.2706 73.5868 66.5266 73.5858 66.7849Z" fill="white"/>
<path d="M75.0719 63.1404C74.8656 62.902 74.6373 62.6891 74.3907 62.5051C74.023 62.2367 73.6257 62.0232 73.2088 61.8698C72.7639 61.7218 72.3021 61.6473 71.8381 61.6489H55.907C54.6924 61.6489 53.5275 62.1901 52.6686 63.1536C51.8097 64.1171 51.3271 65.4238 51.3271 66.7863C51.3271 68.1488 51.8097 69.4556 52.6686 70.419C53.5275 71.3825 54.6924 71.9237 55.907 71.9237H71.8381C72.9032 71.931 73.9359 71.5133 74.7518 70.7452C75.2452 70.2892 75.6481 69.7224 75.9345 69.0812C76.2208 68.4401 76.3844 67.7387 76.4145 67.0224C76.4447 66.3061 76.3408 65.5906 76.1095 64.922C75.8783 64.2534 75.5249 63.6465 75.0719 63.1404ZM54.1506 66.8231C54.1506 66.3006 54.3356 65.7994 54.665 65.4299C54.9944 65.0604 55.4412 64.8529 55.907 64.8529H64.6236V68.7934H55.907C55.6742 68.791 55.4441 68.7372 55.2298 68.635C55.0155 68.5328 54.8213 68.3843 54.6582 68.1979C54.4951 68.0115 54.3663 67.791 54.2792 67.5488C54.1921 67.3065 54.1484 67.0475 54.1506 66.7863V66.8231Z" fill="#2639E3"/>
<path d="M100.027 47.0636C100.027 48.3697 97.5177 50.2492 92.6995 51.8844C92.0805 52.0862 91.4197 52.3092 90.7338 52.5109C90.0478 52.7127 89.3786 52.8932 88.6509 53.0737C80.598 54.9514 72.4206 55.8333 64.2336 55.7071C52.8489 55.7071 43.9988 54.3267 37.9593 52.5746C37.2316 52.3729 36.5456 52.1499 35.8932 51.9269C35.2407 51.7039 34.5715 51.4597 33.9692 51.2155C30.3221 49.7501 28.4316 48.1998 28.4316 47.0636V47.0106C28.4316 46.2248 30.8575 42.7632 42.9448 40.3103L44.1661 40.0555L46.341 23.7667C46.4716 22.7395 46.7678 21.7576 47.2112 20.8824C47.6545 20.0072 48.2353 19.2576 48.9174 18.6805C49.5936 18.0977 50.3558 17.6947 51.158 17.4958C51.9602 17.2969 52.7858 17.3062 53.585 17.5231L57.9181 18.7336C62.0697 19.9017 66.3724 19.9017 70.5241 18.7336L74.7902 17.5231C75.5958 17.2981 76.4293 17.2847 77.2392 17.4837C78.0491 17.6828 78.8183 18.09 79.4996 18.6805C80.1713 19.2657 80.7407 20.0203 81.1725 20.8972C81.6042 21.7741 81.889 22.7545 82.0091 23.7773L84.1924 40.0555L85.4137 40.3103C97.5763 42.8375 100.027 46.2779 100.027 47.0636Z" fill="#2639E3"/>
<path d="M107.779 63.1485C107.357 62.6679 106.853 62.2867 106.298 62.0274C105.742 61.7681 105.146 61.6359 104.545 61.6386C105.146 61.6359 105.742 61.7681 106.298 62.0274C106.853 62.2867 107.357 62.6679 107.779 63.1485Z" fill="#2639E3"/>
<path d="M71.8376 61.6312C72.3028 61.6305 72.7653 61.7113 73.2083 61.8706C72.7634 61.7225 72.3016 61.648 71.8376 61.6496H64.623L71.8376 61.6312Z" fill="#2639E3"/>
<path d="M74.3915 62.5057C74.0238 62.2374 73.6265 62.0238 73.2096 61.8705C73.6299 62.0142 74.0283 62.2284 74.3915 62.5057Z" fill="#2639E3"/>
<path d="M107.781 63.1583C107.359 62.6776 106.855 62.2964 106.3 62.0371C105.745 61.7778 105.149 61.6457 104.547 61.6484H97.7842C96.9081 59.0229 95.7151 56.5446 94.2385 54.2829C99.1056 52.5704 102.446 50.195 102.446 46.9174C102.446 42.7835 97.0701 39.6348 86.4822 37.5264L84.7504 26.1099C84.561 24.711 84.1144 23.3716 83.439 22.1766C82.7637 20.9815 81.8742 19.957 80.8272 19.168C79.7764 18.363 78.5899 17.808 77.3406 17.5373C76.0913 17.2665 74.8058 17.2857 73.5634 17.5936L69.3775 18.634C65.7878 19.5269 62.0673 19.5269 58.4777 18.634L54.2097 17.5936C52.9755 17.2824 51.6971 17.2617 50.4554 17.5327C49.2136 17.8036 48.0354 18.3605 46.9952 19.168C45.9536 19.9619 45.0656 20.9836 44.3844 22.1717C43.7032 23.3598 43.2429 24.6899 43.0309 26.0823L41.2991 37.5264C30.6783 39.6256 25.3352 42.7835 25.4172 46.945C25.4172 49.7623 27.9534 51.9259 31.8192 53.5555C31.0378 54.6748 30.33 55.8564 29.7016 57.091C26.4684 52.1017 21.8162 48.4971 16.5119 46.8714C15.6882 46.618 14.8145 46.6592 14.0127 46.9892C13.2108 47.3193 12.5208 47.9218 12.0387 48.7127C11.526 49.5085 11.25 50.4653 11.25 51.4472C11.25 52.429 11.526 53.3859 12.0387 54.1816C15.5675 59.7309 17.4642 66.3773 17.4642 73.1937C17.4642 80.0101 15.5675 86.6566 12.0387 92.2059C11.526 93.0016 11.25 93.9585 11.25 94.9403C11.25 95.9221 11.526 96.879 12.0387 97.6747C12.4043 98.2978 12.8993 98.8118 13.4812 99.1727C14.0631 99.5335 14.7145 99.7304 15.3793 99.7463C15.751 99.7489 16.1212 99.6931 16.4791 99.5806C22.0761 97.8588 26.9349 93.9377 30.1695 88.5324C32.6237 92.9227 36.0304 96.543 40.0711 99.0549C44.1118 101.567 48.6544 102.888 53.274 102.895H72.2584C76.8442 102.898 81.3562 101.6 85.3743 99.1205C89.3925 96.6414 92.7863 93.0624 95.2398 88.7165H102.479C103.694 88.7165 104.859 88.1752 105.717 87.2118C106.576 86.2483 107.059 84.9416 107.059 83.5791C107.059 82.2165 106.576 80.9098 105.717 79.9464C104.859 78.9829 103.694 78.4416 102.479 78.4416H98.9333C99.2998 76.4361 99.484 74.394 99.4832 72.3467C99.4915 72.1996 99.4915 72.0519 99.4832 71.9048H104.531C105.594 71.9131 106.624 71.4952 107.436 70.7263C107.955 70.241 108.372 69.6325 108.656 68.9447C108.94 68.2568 109.084 67.5069 109.078 66.749C109.083 66.0842 108.971 65.4249 108.748 64.8087C108.526 64.1926 108.197 63.6317 107.781 63.1583ZM28.7906 46.9726V46.9266C28.7906 46.2453 31.1708 43.2439 43.0309 41.1171L44.2292 40.8961L46.3632 26.7728C46.4913 25.8822 46.782 25.0308 47.217 24.2719C47.652 23.5131 48.2219 22.8631 48.8912 22.3627C49.5547 21.8575 50.3025 21.5081 51.0896 21.3356C51.8767 21.1631 52.6868 21.1712 53.471 21.3592L57.7226 22.4088C61.7961 23.4216 66.018 23.4216 70.0915 22.4088L74.2774 21.3592C75.068 21.1641 75.8857 21.1525 76.6804 21.3251C77.4751 21.4977 78.2299 21.8508 78.8984 22.3627C79.5574 22.8702 80.1161 23.5245 80.5397 24.2848C80.9634 25.0451 81.2428 25.8952 81.3607 26.782L83.5029 40.8961L84.7012 41.1171C96.5777 43.3083 99.0153 46.2913 99.0153 46.9726C99.0153 48.1051 96.553 49.7347 91.8254 51.1526C91.2181 51.3275 90.5697 51.5208 89.8966 51.6958C89.2236 51.8707 88.567 52.0272 87.8529 52.1837C79.9514 53.8118 71.9278 54.5764 63.8948 54.467C52.7241 54.467 44.0404 53.2701 38.1145 51.751C37.4004 51.5761 36.7274 51.3827 36.0872 51.1894C35.447 50.996 34.7904 50.7843 34.1994 50.5725C30.6455 49.302 28.7906 47.9578 28.7906 46.9726ZM30.2762 79.3531C29.828 81.2038 29.1832 82.9874 28.3556 84.6655C27.0004 87.3945 25.1749 89.7938 22.9851 91.7238C20.7954 93.6537 18.2853 95.0758 15.6009 95.907C15.4497 95.9588 15.2875 95.9536 15.1393 95.892C14.991 95.8305 14.8648 95.7161 14.7801 95.5664C14.6843 95.3948 14.6305 95.1979 14.6242 94.9955C14.6246 94.8078 14.6761 94.6247 14.7719 94.4708C18.7193 88.2804 20.8416 80.86 20.8416 73.249C20.8416 65.638 18.7193 58.2176 14.7719 52.0272C14.6692 51.8695 14.6138 51.6793 14.6138 51.484C14.6138 51.2887 14.6692 51.0985 14.7719 50.9408C14.8338 50.8296 14.9195 50.7376 15.0214 50.6732C15.1232 50.6089 15.2378 50.5742 15.3546 50.5725C15.4254 50.5605 15.4973 50.5605 15.568 50.5725C20.7563 52.1509 25.2017 55.9138 27.978 61.0775C28.8667 62.7098 29.5698 64.4604 30.071 66.2886C30.684 68.5196 30.9966 70.8408 30.9984 73.1753C31.0071 75.2617 30.7641 77.3398 30.2762 79.3531ZM72.2748 99.1202H53.2905C48.9235 99.1164 44.6413 97.7683 40.9102 95.2227C37.1792 92.6772 34.1426 89.0319 32.1311 84.6839C33.6858 80.9504 34.4592 76.8678 34.3924 72.7477C34.3255 68.6277 33.4201 64.5793 31.7453 60.9118C32.6783 58.723 33.8741 56.6878 35.2993 54.8629C43.8352 57.4316 55.9826 58.2694 63.9194 58.2694C71.3063 58.2694 82.3128 57.5513 90.6764 55.3877C92.0756 57.2859 93.233 59.3929 94.1154 61.6484H88.6244C87.4423 61.7045 86.3251 62.2708 85.5063 63.2289C84.6875 64.1871 84.2304 65.4631 84.2304 66.7904C84.2304 68.1177 84.6875 69.3937 85.5063 70.3518C86.3251 71.31 87.4423 71.8763 88.6244 71.9324H96.1098C96.1098 72.0705 96.1098 72.2178 96.1098 72.3743C96.113 74.4268 95.9009 76.4725 95.4778 78.4693H86.5807C85.3661 78.4693 84.2012 79.0105 83.3423 79.974C82.4834 80.9374 82.0009 82.2442 82.0009 83.6067C82.0009 84.9692 82.4834 86.2759 83.3423 87.2394C84.2012 88.2028 85.3661 88.7441 86.5807 88.7441H91.1032C88.8799 91.9721 86.0268 94.5858 82.763 96.3844C79.4991 98.1831 75.9113 99.119 72.2748 99.1202ZM102.512 81.6272C102.978 81.6272 103.424 81.8348 103.754 82.2043C104.083 82.5738 104.268 83.0749 104.268 83.5975C104.268 84.12 104.083 84.6212 103.754 84.9907C103.424 85.3602 102.978 85.5677 102.512 85.5677H86.5807C86.1149 85.5677 85.6681 85.3602 85.3387 84.9907C85.0093 84.6212 84.8243 84.12 84.8243 83.5975C84.8243 83.0749 85.0093 82.5738 85.3387 82.2043C85.6681 81.8348 86.1149 81.6272 86.5807 81.6272H102.512ZM104.547 68.7376H88.6244C88.1804 68.7035 87.7645 68.4816 87.4607 68.1167C87.157 67.7518 86.988 67.2712 86.988 66.772C86.988 66.2727 87.157 65.7921 87.4607 65.4272C87.7645 65.0623 88.1804 64.8404 88.6244 64.8063H104.547C104.788 64.7879 105.029 64.825 105.255 64.9154C105.482 65.0059 105.69 65.1476 105.866 65.332C106.042 65.5163 106.182 65.7393 106.278 65.987C106.374 66.2347 106.424 66.5019 106.424 66.772C106.424 67.042 106.374 67.3092 106.278 67.557C106.182 67.8047 106.042 68.0276 105.866 68.212C105.69 68.3963 105.482 68.5381 105.255 68.6285C105.029 68.7189 104.788 68.7561 104.547 68.7376Z" fill="#192BC2"/>
<path d="M104.268 83.6063C104.264 84.1273 104.077 84.6257 103.749 84.9941C103.42 85.3626 102.976 85.5717 102.512 85.5765H86.5805C86.1147 85.5765 85.6679 85.3689 85.3385 84.9994C85.0091 84.63 84.8241 84.1288 84.8241 83.6063C84.8241 83.0837 85.0091 82.5826 85.3385 82.2131C85.6679 81.8436 86.1147 81.636 86.5805 81.636H102.512C102.977 81.6384 103.422 81.8468 103.751 82.2157C104.08 82.5847 104.266 83.0845 104.268 83.6063Z" fill="white"/>
<path d="M106.303 66.7859C106.303 67.3085 106.118 67.8096 105.788 68.1791C105.459 68.5486 105.012 68.7562 104.546 68.7562H97.3071V64.8249H104.546C104.777 64.8237 105.005 64.8735 105.218 64.9715C105.431 65.0695 105.625 65.2138 105.788 65.396C105.951 65.5782 106.08 65.7948 106.169 66.0333C106.257 66.2719 106.303 66.5276 106.303 66.7859Z" fill="#2639E3"/>
<path d="M97.3064 64.8249V68.7562H88.6227C88.1786 68.7221 87.7627 68.5001 87.4589 68.1353C87.1552 67.7704 86.9862 67.2898 86.9862 66.7905C86.9862 66.2913 87.1552 65.8106 87.4589 65.4458C87.7627 65.0809 88.1786 64.859 88.6227 64.8249H97.3064Z" fill="white"/>
<path d="M30.9742 73.2491C30.977 75.3109 30.7341 77.3638 30.2519 79.3533C29.8038 81.204 29.1589 82.9875 28.3313 84.6656C26.9762 87.3946 25.1506 89.794 22.9609 91.7239C20.7712 93.6539 18.261 95.0759 15.5766 95.9072C15.4255 95.959 15.2633 95.9537 15.115 95.8922C14.9668 95.8306 14.8406 95.7162 14.7559 95.5665C14.66 95.395 14.6063 95.198 14.5999 94.9957C14.6003 94.808 14.6519 94.6249 14.7477 94.4709C18.695 88.2805 20.8173 80.8601 20.8173 73.2491C20.8173 65.6381 18.695 58.2177 14.7477 52.0273C14.645 51.8697 14.5896 51.6794 14.5896 51.4841C14.5896 51.2889 14.645 51.0986 14.7477 50.9409C14.8095 50.8297 14.8953 50.7377 14.9971 50.6734C15.099 50.609 15.2136 50.5744 15.3304 50.5727C15.4012 50.5607 15.4731 50.5607 15.5438 50.5727C20.7412 52.1446 25.1963 55.9083 27.9784 61.0777C28.8671 62.71 29.5702 64.4606 30.0714 66.2888C30.6826 68.5448 30.9869 70.8913 30.9742 73.2491Z" fill="#2639E3"/>
</svg>
